<?xml version="1.0" encoding="utf-8"?><svg xmlns="http://www.w3.org/2000/svg" xmlns:xlink="http://www.w3.org/1999/xlink"><symbol viewBox="0 0 11 12" id="add" xmlns="http://www.w3.org/2000/svg"><path d="M9.998 4.996H6.501V1.502a1 1 0 10-1.998 0v3.496h-3.5a1.002 1.002 0 00-.71 1.713.999.999 0 00.708.296h3.502V10.5A.995.995 0 005.5 11.5a1 1 0 001-1.001V7.007h3.497a1.005 1.005 0 000-2.011z"/></symbol><symbol fill="none" viewBox="0 0 38 38" id="arrow" xmlns="http://www.w3.org/2000/svg"><path d="M8.558 17.294c.106-.017.213-.025.32-.023H25.17l-.399-.186a3.71 3.71 0 01-1.047-.742l-5.128-5.127a1.92 1.92 0 01-.268-2.457 1.854 1.854 0 012.781-.241l9.272 9.272c.725.724.725 1.898.001 2.622l-.001.002-9.272 9.272a1.855 1.855 0 01-2.782-.186 1.92 1.92 0 01.27-2.457l5.117-5.136c.272-.273.585-.501.928-.677l.556-.25H8.981a1.92 1.92 0 01-1.957-1.558 1.854 1.854 0 011.534-2.128z" fill="#C6CFD7"/></symbol><symbol fill="none" viewBox="0 0 21 22" id="basket" xmlns="http://www.w3.org/2000/svg"><path d="M19.668 6.566l-1.844 7.377a1.31 1.31 0 01-1.274.995H5.178a1.312 1.312 0 01-1.304-1.16L2.546 3.124H1.64a.984.984 0 110-1.969h1.763c.492 0 .908.364.975.85l.513 3.744h14.14c.426 0 .74.402.636.816zM4.594 18.219c0 1.085.883 1.968 1.968 1.968a1.971 1.971 0 001.97-1.968 1.971 1.971 0 00-1.97-1.969 1.971 1.971 0 00-1.968 1.969zM16.406 18.219a1.971 1.971 0 00-1.968-1.969 1.971 1.971 0 00-1.97 1.969c0 1.085.884 1.968 1.97 1.968a1.971 1.971 0 001.968-1.968z" fill="#222731"/></symbol><symbol fill="none" viewBox="0 0 21 21" id="basket-mobile" xmlns="http://www.w3.org/2000/svg"><path d="M19.668 6.066l-1.844 7.377a1.31 1.31 0 01-1.274.995H5.178a1.312 1.312 0 01-1.304-1.16L2.546 2.624H1.64a.984.984 0 110-1.969h1.763c.492 0 .908.364.975.85l.513 3.744h14.14c.426 0 .74.402.636.816zM4.594 17.719c0 1.085.883 1.968 1.968 1.968a1.971 1.971 0 001.97-1.968 1.971 1.971 0 00-1.97-1.969 1.971 1.971 0 00-1.968 1.969zM16.406 17.719a1.971 1.971 0 00-1.968-1.969 1.971 1.971 0 00-1.97 1.969c0 1.085.884 1.968 1.97 1.968a1.971 1.971 0 001.968-1.968z" fill="#C6CFD7"/></symbol><symbol fill="none" viewBox="0 0 16 8" id="catalog-btn" xmlns="http://www.w3.org/2000/svg"><rect width="16" height="2.286" rx="1.143" fill="#fff"/><rect y="5.714" width="16" height="2.286" rx="1.143" fill="#fff"/></symbol><symbol fill="none" viewBox="0 0 11 8" id="check" xmlns="http://www.w3.org/2000/svg"><path fill-rule="evenodd" clip-rule="evenodd" d="M4 5.586L9.293.293a1 1 0 111.414 1.414l-6 6a1 1 0 01-1.414 0l-3-3a1 1 0 111.414-1.414L4 5.586z" fill="#6E7885"/></symbol><symbol fill="none" viewBox="0 0 8 8" id="clear-filter" xmlns="http://www.w3.org/2000/svg"><path d="M.758 7.904a.758.758 0 01-.538-.182.758.758 0 010-1.069L6.654.22A.758.758 0 017.76 1.25L1.29 7.723a.758.758 0 01-.53.182z" fill="#506FDE"/><path d="M7.184 7.904a.758.758 0 01-.53-.22L.22 1.251A.758.758 0 011.29.182L7.76 6.616a.758.758 0 010 1.106.758.758 0 01-.576.182z" fill="#506FDE"/></symbol><symbol fill="none" viewBox="0 0 38 38" id="clock" xmlns="http://www.w3.org/2000/svg"><circle cx="18.667" cy="18.667" r="16.349"/><path d="M26.916 18.667h-7.792a.458.458 0 01-.458-.459V12.25"/></symbol><symbol viewBox="0 0 38 38" id="document" xmlns="http://www.w3.org/2000/svg"><path fill-rule="evenodd" clip-rule="evenodd" d="M19 6v6.57c0 .552 0 1.088.06 1.53.067.498.23 1.066.702 1.539.472.472 1.04.635 1.539.702.442.06.978.06 1.529.059h6.57v7.8c0 3.677 0 5.515-1.142 6.658C27.116 32 25.278 32 21.6 32h-5.2c-3.677 0-5.515 0-6.658-1.142C8.6 29.715 8.6 27.877 8.6 24.2V13.8c0-3.677 0-5.515 1.142-6.658C10.885 6 12.723 6 16.4 6H19zm2.6.006V12.5c0 .65.003 1.006.037 1.253v.01l.01.001c.248.033.604.036 1.254.036h6.493c-.013-.535-.056-.89-.192-1.218-.198-.478-.574-.854-1.325-1.605l-3.454-3.454c-.751-.751-1.127-1.127-1.605-1.325-.329-.136-.683-.179-1.218-.192z"/></symbol><symbol fill="none" viewBox="0 0 38 38" id="documents" xmlns="http://www.w3.org/2000/svg"><rect x="5" y="2" width="28" height="34" rx="4"/><path d="M13.002 12h12M13.002 20h12M13.002 28h8"/></symbol><symbol viewBox="0 0 38 38" id="dollar" xmlns="http://www.w3.org/2000/svg"><path d="M19.277 16.444c-3.342 0-6.167-1.882-6.167-4.11 0-2.229 2.825-4.112 6.167-4.112 1.891 0 3.642.592 4.802 1.62a2.053 2.053 0 002.902-.173 2.052 2.052 0 00-.172-2.902c-1.44-1.279-3.372-2.142-5.476-2.483V2.056a2.056 2.056 0 00-4.111 0v2.22c-4.687.764-8.223 4.086-8.223 8.057 0 4.535 4.613 8.223 10.278 8.223 3.342 0 6.167 1.882 6.167 4.11 0 2.229-2.825 4.112-6.167 4.112-1.891 0-3.642-.592-4.802-1.62a2.049 2.049 0 00-2.902.173 2.052 2.052 0 00.172 2.902c1.44 1.283 3.372 2.142 5.476 2.487v2.224a2.056 2.056 0 004.112 0v-2.22c4.686-.764 8.222-4.086 8.222-8.057 0-4.535-4.613-8.223-10.278-8.223z"/></symbol><symbol fill="none" viewBox="0 0 20 20" id="done" xmlns="http://www.w3.org/2000/svg"><circle cx="10" cy="10" r="7.5" fill="#1FB159" stroke="#1FB159" stroke-width="1.667"/><path d="M14.707 7.708l-5.275 5.275c-.391.391-1.025.391-1.416 0L5.293 10.26a1 1 0 011.415-1.415l2.016 2.015 4.568-4.567a1.001 1.001 0 011.415 1.415z" fill="#fff"/></symbol><symbol fill="none" viewBox="0 0 20 15" id="download" xmlns="http://www.w3.org/2000/svg"><path d="M16.13 5.863A6.25 6.25 0 0010 .833a6.255 6.255 0 00-5.542 3.363A5.003 5.003 0 000 9.167c0 2.763 2.237 5 5 5h10.833C18.133 14.167 20 12.3 20 10c0-2.2-1.712-3.983-3.87-4.137zM10 12.5L5.833 8.334h2.5V5h3.334v3.334h2.5L10 12.5z" fill="#506FDE"/></symbol><symbol fill="none" viewBox="0 0 11 8" id="drop" xmlns="http://www.w3.org/2000/svg"><path d="M5.5 7.135a.768.768 0 01-.545-.225L.225 2.18a.77.77 0 111.09-1.09L5.5 5.277 9.685 1.09a.77.77 0 011.09 1.09L6.044 6.91a.768.768 0 01-.545.225z" fill="#111723"/></symbol><symbol fill="none" viewBox="0 0 20 20" id="error" xmlns="http://www.w3.org/2000/svg"><circle cx="10" cy="10" r="7.5" fill="#EF4722" stroke="#EF4722" stroke-width="1.667"/><path d="M13.696 7.773L10.969 10.5l2.727 2.727a1.039 1.039 0 01-1.469 1.469L9.5 11.968l-2.727 2.728a1.035 1.035 0 01-1.469 0 1.039 1.039 0 010-1.469L8.031 10.5 5.304 7.773a1.038 1.038 0 011.469-1.469L9.5 9.031l2.727-2.727a1.039 1.039 0 011.469 1.469z" fill="#fff"/></symbol><symbol fill="none" viewBox="0 0 17 17" id="exit" xmlns="http://www.w3.org/2000/svg"><path fill-rule="evenodd" clip-rule="evenodd" d="M7.998 3.81l1.035-1.294a6.2 6.2 0 100 11.754l-1.035-1.294a4.679 4.679 0 110-9.166z" fill="#D1D3D5"/><path d="M11.585 3.86l3.626 4.533m0 0l-3.627 4.533m3.627-4.533H7.958" stroke="#CCD2E3" stroke-width="1.522" stroke-linecap="round" stroke-linejoin="round"/></symbol><symbol fill="none" viewBox="0 0 38 38" id="eye" xmlns="http://www.w3.org/2000/svg"><g opacity=".79" fill="#969EA8"><path d="M36.036 17.99c-.312-.393-7.744-9.64-17.235-9.64S1.878 17.596 1.567 17.99a.998.998 0 000 1.254c.311.394 7.743 9.642 17.234 9.642 9.491 0 16.923-9.248 17.235-9.642a.997.997 0 000-1.253zM18.8 26.762c-6.991 0-13.046-6.138-14.839-8.144 1.79-2.009 7.833-8.143 14.84-8.143 6.99 0 13.045 6.136 14.838 8.144-1.79 2.009-7.832 8.143-14.839 8.143z"/><path fill-rule="evenodd" clip-rule="evenodd" d="M1.57 19.244a.998.998 0 010-1.254c.312-.393 7.743-9.64 17.235-9.64 9.49 0 16.922 9.247 17.234 9.64a.997.997 0 010 1.255c-.312.393-7.743 9.64-17.234 9.64-9.492 0-16.923-9.247-17.235-9.64zm-.274-1.47c.166-.209 2.122-2.644 5.237-5.029C9.643 10.363 13.948 8 18.805 8c4.856 0 9.161 2.363 12.271 4.745 3.115 2.385 5.071 4.82 5.237 5.029.396.5.396 1.187 0 1.687-.165.209-2.122 2.643-5.237 5.029-3.11 2.382-7.415 4.745-12.271 4.745-4.857 0-9.162-2.363-12.272-4.745-3.115-2.386-5.071-4.82-5.237-5.03a1.347 1.347 0 010-1.686zm8.337 5.38c2.583 1.765 5.775 3.258 9.172 3.258 3.404 0 6.596-1.492 9.178-3.257 2.39-1.635 4.23-3.485 5.19-4.537-.962-1.051-2.805-2.902-5.197-4.537-2.583-1.766-5.775-3.258-9.171-3.258-3.404 0-6.597 1.492-9.179 3.257-2.39 1.635-4.23 3.485-5.19 4.536.962 1.052 2.805 2.902 5.197 4.537zm-5.667-4.537c1.79-2.009 7.832-8.143 14.839-8.143 6.99 0 13.045 6.136 14.839 8.144-1.79 2.009-7.833 8.143-14.84 8.143-6.99 0-13.046-6.138-14.838-8.144z"/></g><circle opacity=".79" cx="18.46" cy="18.617" r="3.423" fill="#969EA8"/></symbol><symbol fill="none" viewBox="0 0 24 25" id="header-history" xmlns="http://www.w3.org/2000/svg"><path fill-rule="evenodd" clip-rule="evenodd" d="M12 21.5a9 9 0 100-18 9 9 0 000 18zM13 7a1 1 0 10-2 0v5.25c0 .69.56 1.25 1.25 1.25h3.25a1 1 0 100-2H13V7z" fill="#fff"/></symbol><symbol fill="none" viewBox="0 0 38 38" id="home" xmlns="http://www.w3.org/2000/svg"><path d="M5 18.704c0-2.73 0-4.096.552-5.296.552-1.2 1.589-2.089 3.662-3.866l2.011-1.724C14.973 4.606 16.846 3 19.078 3c2.232 0 4.106 1.606 7.853 4.818l2.011 1.724c2.074 1.777 3.11 2.666 3.662 3.866.552 1.2.552 2.565.552 5.296v8.528c0 3.792 0 5.688-1.178 6.867-1.178 1.178-3.074 1.178-6.866 1.178H13.045c-3.793 0-5.689 0-6.867-1.178C5 32.92 5 31.024 5 27.232v-8.528z"/><path d="M24.106 35.277V25.22c0-1.11-.9-2.011-2.012-2.011h-6.033c-1.11 0-2.011.9-2.011 2.01v10.057"/></symbol><symbol fill="none" viewBox="0 0 57 58" id="main-panels-ico_1" xmlns="http://www.w3.org/2000/svg"><circle cx="28.5" cy="29" r="28.5" fill="#F1F5F9"/><path fill-rule="evenodd" clip-rule="evenodd" d="M18.611 16.57c-.903.903-.903 2.356-.903 5.263v13.875c0 2.907 0 4.36.903 5.264.903.903 2.357.903 5.264.903h9.25c2.907 0 4.36 0 5.263-.903.903-.903.903-2.357.903-5.264V21.833c0-2.907 0-4.36-.903-5.263-.903-.904-2.356-.904-5.263-.904h-9.25c-2.907 0-4.36 0-5.264.904zm5.264 5.263a1.542 1.542 0 000 3.084h9.25a1.542 1.542 0 000-3.084h-9.25zm0 6.167a1.542 1.542 0 100 3.083h9.25a1.542 1.542 0 000-3.083h-9.25zm0 6.166a1.542 1.542 0 100 3.084h6.166a1.542 1.542 0 100-3.084h-6.166z" fill="#506FDE"/><path d="M40.783 48a1.403 1.403 0 001.399 1.408h3.922v3.91a1.393 1.393 0 001.396 1.4 1.4 1.4 0 001.4-1.4v-3.91h3.916a1.405 1.405 0 000-2.81H48.9v-3.914a1.398 1.398 0 10-2.796 0V46.6h-3.919c-.773 0-1.402.627-1.402 1.4zm0 0s0 0 0 0H41l-.217.001s0 0 0 0zm5.32 1.191h.218v.217l-.217-.217z" fill="#506FDE" stroke="#506FDE" stroke-width=".433"/></symbol><symbol fill="none" viewBox="0 0 58 58" id="main-panels-ico_2" xmlns="http://www.w3.org/2000/svg"><circle cx="28.966" cy="29" r="28.5" fill="#F1F5F9"/><path d="M34.586 20.198h0c-1.044-.928-2.428-1.56-3.933-1.83V16.9a1.688 1.688 0 00-3.375 0v1.462c-3.4.615-6 3.064-6 6.038 0 3.45 3.492 6.187 7.688 6.187 1.186 0 2.274.335 3.06.86.79.525 1.252 1.224 1.252 1.953 0 .729-.462 1.428-1.252 1.954-.786.524-1.874.858-3.06.858-1.345 0-2.575-.421-3.38-1.134a1.682 1.682 0 00-2.382.141 1.685 1.685 0 00.141 2.383c1.044.93 2.428 1.56 3.933 1.833V40.9a1.688 1.688 0 003.375 0v-1.462c3.401-.616 6-3.064 6-6.038 0-3.45-3.49-6.188-7.687-6.188-1.186 0-2.274-.334-3.06-.858-.79-.526-1.253-1.226-1.253-1.954 0-.729.463-1.428 1.252-1.954.787-.524 1.875-.859 3.06-.859 1.345 0 2.576.422 3.38 1.135.695.617 1.759.56 2.383-.141a1.685 1.685 0 00-.142-2.383z" fill="#506FDE" stroke="#506FDE" stroke-width=".375"/></symbol><symbol fill="none" viewBox="0 0 58 58" id="main-panels-ico_3" xmlns="http://www.w3.org/2000/svg"><circle cx="29.43" cy="29" r="28.5" fill="#F1F5F9"/><path fill-rule="evenodd" clip-rule="evenodd" d="M29.43 41.125c6.42 0 11.625-5.205 11.625-11.625S35.85 17.875 29.43 17.875 17.805 23.08 17.805 29.5s5.204 11.625 11.625 11.625zm1.291-18.73a1.292 1.292 0 00-2.583 0v6.782c0 .892.723 1.615 1.615 1.615h4.197a1.292 1.292 0 100-2.584h-3.229v-5.812z" fill="#506FDE"/></symbol><symbol fill="none" viewBox="0 0 58 58" id="main-panels-ico_4" xmlns="http://www.w3.org/2000/svg"><circle cx="28.898" cy="29" r="28.5" fill="#F1F5F9"/><path fill-rule="evenodd" clip-rule="evenodd" d="M35.667 28.208h6.459v-4.52a3.23 3.23 0 00-6.459 0v4.52zm-2.583 0l-.128 12.874-3.747-1.249-3.875 1.292-3.875-1.292-3.875 1.292V23.042c0-2.436 0-3.654.757-4.41.756-.757 1.974-.757 4.41-.757h12.916c1.075 0 1.91 0 2.588.035a5.813 5.813 0 00-5.171 5.777v4.522zm-12.917-5.166c0-.714.579-1.292 1.292-1.292h7.75a1.292 1.292 0 110 2.583h-7.75a1.292 1.292 0 01-1.292-1.291zm0 5.166c0-.713.579-1.291 1.292-1.291h2.583a1.292 1.292 0 110 2.583H21.46a1.292 1.292 0 01-1.292-1.292zm0 5.167c0-.713.579-1.292 1.292-1.292h5.167a1.292 1.292 0 010 2.584h-5.167a1.292 1.292 0 01-1.292-1.292z" fill="#506FDE"/></symbol><symbol fill="none" viewBox="0 0 25 25" id="meneger-info" xmlns="http://www.w3.org/2000/svg"><path d="M14.31 22.758a10.416 10.416 0 10-3.618-20.515 10.416 10.416 0 003.617 20.515h0z" stroke="#D1D3D5" stroke-width="1.8"/><path d="M12.5 12.5v6.25M12.5 7.292V6.25" stroke="#D1D3D5" stroke-width="1.8" stroke-linecap="round" stroke-linejoin="round"/></symbol><symbol fill="none" viewBox="0 0 6 2" id="minus" xmlns="http://www.w3.org/2000/svg"><path d="M5.449.088H.994v1.094H5.45V.088z" fill="#161617"/></symbol><symbol fill="none" viewBox="0 0 19 19" id="mobile-popup-close" xmlns="http://www.w3.org/2000/svg"><path d="M11.24 9.5l7.399-7.398a1.23 1.23 0 10-1.74-1.74l-7.4 7.398L2.103.36a1.23 1.23 0 10-1.74 1.742L7.758 9.5.361 16.9A1.23 1.23 0 001.231 19c.315 0 .63-.12.87-.36l7.399-7.4 7.398 7.4a1.228 1.228 0 001.74 0 1.23 1.23 0 000-1.741L11.242 9.5z" fill="#fff"/></symbol><symbol fill="none" viewBox="0 0 19 20" id="notifications" xmlns="http://www.w3.org/2000/svg"><g clip-path="url(#baclip0_409:2734)"><path d="M9.5 19.05c1.046 0 1.9-.855 1.9-1.9H7.6c0 1.045.856 1.9 1.9 1.9zm6.176-5.7V8.125c0-2.945-1.995-5.32-4.75-5.985v-.665C10.926.715 10.26.05 9.5.05S8.076.715 8.076 1.475v.665c-2.755.665-4.75 3.04-4.75 5.985v5.225l-1.9 1.9v.95h16.15v-.95l-1.9-1.9zm-1.9.95h-8.55V8.125c0-2.375 1.9-4.275 4.275-4.275 2.375 0 4.275 1.9 4.275 4.275V14.3z" fill="#CCD2E3"/></g><defs><clipPath id="baclip0_409:2734"><path fill="#fff" transform="translate(0 .05)" d="M0 0h19v19H0z"/></clipPath></defs></symbol><symbol viewBox="0 0 38 38" id="order" xmlns="http://www.w3.org/2000/svg"><path fill-rule="evenodd" clip-rule="evenodd" d="M8.882 6.882C8 7.764 8 9.184 8 12.024v13.554c0 2.84 0 4.26.882 5.142.882.882 2.302.882 5.142.882h9.036c2.84 0 4.26 0 5.142-.882.882-.882.882-2.302.882-5.142V12.024c0-2.84 0-4.26-.882-5.142C27.32 6 25.9 6 23.06 6h-9.036c-2.84 0-4.26 0-5.142.882zm5.144 5.142a1.506 1.506 0 100 3.012h9.036a1.506 1.506 0 100-3.012h-9.036zm0 6.024a1.506 1.506 0 100 3.012h9.036a1.506 1.506 0 100-3.012h-9.036zm0 6.024a1.506 1.506 0 100 3.012h6.024a1.506 1.506 0 100-3.012h-6.024z"/></symbol><symbol fill="none" viewBox="0 0 7 8" id="plus" xmlns="http://www.w3.org/2000/svg"><path d="M3.057 7.304h1.114V4.58h2.724V3.466H4.171V.74H3.057v2.725H.333V4.58h2.724v2.724z" fill="#161617"/></symbol><symbol fill="none" viewBox="0 0 20 20" id="progress" xmlns="http://www.w3.org/2000/svg"><circle cx="9.999" cy="10" r="7.5" stroke="#EC9B00" stroke-width="1.667"/><path d="M15.302 4.697A7.5 7.5 0 104.696 15.303L9.999 10l5.303-5.303z" fill="#EC9B00"/></symbol><symbol fill="none" viewBox="0 0 18 18" id="search" xmlns="http://www.w3.org/2000/svg"><path d="M8.015.944a7.079 7.079 0 00-7.07 7.071 7.079 7.079 0 007.07 7.07 7.078 7.078 0 007.07-7.07 7.079 7.079 0 00-7.07-7.07zm0 12.836A5.772 5.772 0 012.25 8.015 5.772 5.772 0 018.015 2.25a5.772 5.772 0 015.765 5.765 5.772 5.772 0 01-5.765 5.765z" fill="#969EA8"/><path d="M16.461 15.386l-3.394-3.242a.652.652 0 10-.923.923l3.395 3.242a.65.65 0 00.922 0 .652.652 0 000-.923z" fill="#969EA8"/></symbol><symbol fill="none" viewBox="0 0 20 21" id="select-check" xmlns="http://www.w3.org/2000/svg"><path d="M6.28 9.887a.75.75 0 00-1.06 1.06l2.722 2.723a.75.75 0 001.06 0l6.445-6.445a.75.75 0 10-1.06-1.06l-5.915 5.914L6.28 9.887z" fill="#1C2E45" fill-opacity=".6"/></symbol><symbol fill="none" viewBox="0 0 13 13" id="status-arrow" xmlns="http://www.w3.org/2000/svg"><path d="M.841 5.02a1 1 0 01.174-.012h8.8l-.216-.1c-.21-.1-.402-.236-.566-.401l-2.77-2.77A1.037 1.037 0 016.118.41 1.002 1.002 0 017.621.28l5.008 5.008a1.002 1.002 0 010 1.417l-5.008 5.01a1.002 1.002 0 01-1.503-.101c-.28-.419-.22-.98.145-1.327l2.765-2.775c.147-.147.316-.27.5-.366l.301-.135H1.07A1.037 1.037 0 01.014 6.17 1.002 1.002 0 01.84 5.02z" fill="#C6CFD7"/></symbol><symbol fill="none" viewBox="0 0 13 13" id="subtract" xmlns="http://www.w3.org/2000/svg"><path fill-rule="evenodd" clip-rule="evenodd" d="M6.5 13a6.5 6.5 0 100-13 6.5 6.5 0 000 13zm-.88-9.396l4.076 2.264a.722.722 0 010 1.263L5.62 9.396a.867.867 0 01-1.288-.758V4.362c0-.661.71-1.079 1.288-.758z" fill="#506FDE"/></symbol><symbol fill="none" viewBox="0 0 32 32" id="tablet-exit" xmlns="http://www.w3.org/2000/svg"><path fill-rule="evenodd" clip-rule="evenodd" d="M15.435 8.772l1.524-1.904a9.617 9.617 0 00-3.053-.495A9.627 9.627 0 004.279 16a9.627 9.627 0 009.627 9.627 9.617 9.617 0 003.053-.495l-1.524-1.904a7.387 7.387 0 110-14.456z" fill="#ECF2F4"/><path d="M20.996 8.911L26.667 16m0 0l-5.671 7.089M26.667 16H15.325" stroke="#ECF2F4" stroke-width="2.24" stroke-linecap="round" stroke-linejoin="round"/></symbol><symbol viewBox="0 0 38 38" id="user" xmlns="http://www.w3.org/2000/svg"><path d="M19 3C10.164 3 3 10.163 3 19c0 8.836 7.164 15.999 16 15.999 8.837 0 16-7.163 16-16C35 10.163 27.837 3 19 3zm0 4.784a5.293 5.293 0 110 10.585 5.293 5.293 0 010-10.585zm-.003 23.032a11.743 11.743 0 01-7.647-2.82 2.255 2.255 0 01-.791-1.714c0-2.964 2.398-5.336 5.363-5.336h6.158a5.33 5.33 0 015.354 5.336 2.25 2.25 0 01-.79 1.713 11.738 11.738 0 01-7.647 2.82z"/></symbol><symbol fill="none" viewBox="0 0 38 38" id="user-1" xmlns="http://www.w3.org/2000/svg"><g clip-path="url(#clip0_299:15277)"><path d="M34.686 35.323c-.896-2.507-2.87-4.723-5.615-6.303-2.746-1.58-6.11-2.437-9.571-2.437-3.461 0-6.826.857-9.572 2.437-2.745 1.58-4.72 3.796-5.615 6.303"/><circle cx="19.502" cy="10.861" r="7.861"/></g></symbol></svg>