<svg width="11" height="12" viewBox="0 0 11 12" xmlns="http://www.w3.org/2000/svg">
<path d="M9.99842 4.99599H6.50111V1.50159C6.50111 0.94846 6.05483 0.5 5.5017 0.5C4.94858 0.5 4.50254 0.948461 4.50254 1.50183V4.99841H1.00353C0.450406 4.99841 0.000734676 5.44687 0.000976956 6.00024C0.000734676 6.27668 0.112426 6.53011 0.293409 6.71109C0.474635 6.89256 0.724668 7.00716 1.00087 7.00716H4.50254V10.4989C4.50254 10.7756 4.61229 11.0261 4.79352 11.2068C4.97474 11.3881 5.22405 11.5002 5.50073 11.5002C6.05362 11.5002 6.50111 11.0518 6.50111 10.4989V7.00692H9.99842C10.5515 7.00692 11 6.55458 10.9998 6.00145C10.9995 5.44857 10.5511 4.99599 9.99842 4.99599Z"/>
</svg>
