<svg width="24" height="24" viewBox="0 0 24 24" fill="none" xmlns="http://www.w3.org/2000/svg">
<path fill-rule="evenodd" clip-rule="evenodd" d="M8.29289 17.7071C7.90237 17.3166 7.90237 16.6834 8.29289 16.2929L11.5858 13H5C4.44771 13 4 12.5523 4 12C4 11.4477 4.44771 11 5 11H11.5858L8.29289 7.70711C7.90237 7.31658 7.90237 6.68342 8.29289 6.29289C8.68342 5.90237 9.31658 5.90237 9.70711 6.29289L14.7071 11.2929C15.0976 11.6834 15.0976 12.3166 14.7071 12.7071L9.70711 17.7071C9.31658 18.0976 8.68342 18.0976 8.29289 17.7071Z" fill="#7E8E9D"/>
<path fill-rule="evenodd" clip-rule="evenodd" d="M15 19C15 18.4477 15.4477 18 16 18L17 18C17.5523 18 18 17.5523 18 17L18 7C18 6.44772 17.5523 6 17 6L16 6C15.4477 6 15 5.55229 15 5C15 4.44771 15.4477 4 16 4L17 4C18.6569 4 20 5.34315 20 7L20 17C20 18.6569 18.6569 20 17 20L16 20C15.4477 20 15 19.5523 15 19Z" fill="#7E8E9D"/>
</svg>
