<svg width="38" height="38" viewBox="0 0 38 38" fill="none" xmlns="http://www.w3.org/2000/svg">
<path d="M8.55777 17.2944C8.66381 17.2772 8.77114 17.2692 8.87852 17.2706H25.1691L24.7704 17.0852C24.3807 16.9007 24.0262 16.6497 23.7227 16.3434L18.5954 11.216C17.9201 10.5714 17.8066 9.53441 18.3265 8.75899C18.9315 7.93268 20.0918 7.75327 20.9182 8.35832C20.985 8.40723 21.0484 8.46055 21.108 8.51792L30.38 17.7898C31.1046 18.5136 31.1052 19.6877 30.3814 20.4123L30.38 20.4138L21.108 29.6857C20.3829 30.4088 19.2087 30.4072 18.4855 29.6821C18.4286 29.625 18.3755 29.5642 18.3265 29.5003C17.8066 28.7248 17.9201 27.6878 18.5954 27.0432L23.7134 21.9066C23.9855 21.6342 24.2983 21.4058 24.6406 21.2297L25.197 20.9794H8.98057C8.03327 21.0145 7.20215 20.3528 7.02419 19.4217C6.86025 18.4108 7.54684 17.4584 8.55777 17.2944Z" fill="#C6CFD7"/>
</svg>
