<svg width="20" height="20" viewBox="0 0 20 20" fill="none" xmlns="http://www.w3.org/2000/svg">
<path fill-rule="evenodd" clip-rule="evenodd" d="M17.5 5H2.5V7.5C3.42047 7.5 4.16667 8.24619 4.16667 9.16667V12.5C4.16667 14.857 4.16667 16.0355 4.8989 16.7678C5.63113 17.5 6.80964 17.5 9.16667 17.5H10.8333C13.1904 17.5 14.3689 17.5 15.1011 16.7678C15.8333 16.0355 15.8333 14.857 15.8333 12.5V9.16667C15.8333 8.24619 16.5795 7.5 17.5 7.5V5ZM8.75 9.16667C8.75 8.70643 8.3769 8.33333 7.91667 8.33333C7.45643 8.33333 7.08333 8.70643 7.08333 9.16667V13.3333C7.08333 13.7936 7.45643 14.1667 7.91667 14.1667C8.3769 14.1667 8.75 13.7936 8.75 13.3333V9.16667ZM12.9167 9.16667C12.9167 8.70643 12.5436 8.33333 12.0833 8.33333C11.6231 8.33333 11.25 8.70643 11.25 9.16667V13.3333C11.25 13.7936 11.6231 14.1667 12.0833 14.1667C12.5436 14.1667 12.9167 13.7936 12.9167 13.3333V9.16667Z" fill="#506FDE"/>
<path d="M8.39045 2.80883C8.48541 2.72023 8.69465 2.64194 8.98572 2.5861C9.2768 2.53027 9.63343 2.5 10.0003 2.5C10.3672 2.5 10.7239 2.53027 11.0149 2.5861C11.306 2.64194 11.5152 2.72023 11.6102 2.80883" stroke="#506FDE" stroke-width="1.66667" stroke-linecap="round"/>
</svg>
