<svg width="21" height="22" viewBox="0 0 21 22" fill="none" xmlns="http://www.w3.org/2000/svg">
<path d="M19.6678 6.56572L17.8238 13.9433C17.6774 14.5287 17.1537 14.9375 16.55 14.9375H5.17781C4.51172 14.9375 3.95128 14.4388 3.8745 13.7773L2.54559 3.125H1.64063C1.09659 3.125 0.65625 2.68466 0.65625 2.14062C0.65625 1.59659 1.09659 1.15625 1.64063 1.15625H3.40397C3.89616 1.15625 4.31222 1.51981 4.37916 2.00675L4.89234 5.75H19.0313C19.4578 5.75 19.7715 6.15163 19.6678 6.56572Z" fill="#222731"/>
<path d="M4.59375 18.2188C4.59375 19.3042 5.47706 20.1875 6.5625 20.1875C7.64794 20.1875 8.53125 19.3042 8.53125 18.2188C8.53125 17.1333 7.64794 16.25 6.5625 16.25C5.47706 16.25 4.59375 17.1333 4.59375 18.2188Z" fill="#222731"/>
<path d="M16.4062 18.2188C16.4062 17.1333 15.5229 16.25 14.4375 16.25C13.3521 16.25 12.4688 17.1333 12.4688 18.2188C12.4688 19.3042 13.3521 20.1875 14.4375 20.1875C15.5229 20.1875 16.4062 19.3042 16.4062 18.2188Z" fill="#222731"/>
</svg>
