<svg width="21" height="21" viewBox="0 0 21 21" fill="none" xmlns="http://www.w3.org/2000/svg">
<path d="M19.6678 6.06572L17.8238 13.4433C17.6774 14.0287 17.1537 14.4375 16.55 14.4375H5.17781C4.51172 14.4375 3.95128 13.9388 3.8745 13.2773L2.54559 2.625H1.64063C1.09659 2.625 0.65625 2.18466 0.65625 1.64062C0.65625 1.09659 1.09659 0.65625 1.64063 0.65625H3.40397C3.89616 0.65625 4.31222 1.01981 4.37916 1.50675L4.89234 5.25H19.0313C19.4578 5.25 19.7715 5.65163 19.6678 6.06572Z" fill="#C6CFD7"/>
<path d="M4.59375 17.7188C4.59375 18.8042 5.47706 19.6875 6.5625 19.6875C7.64794 19.6875 8.53125 18.8042 8.53125 17.7188C8.53125 16.6333 7.64794 15.75 6.5625 15.75C5.47706 15.75 4.59375 16.6333 4.59375 17.7188Z" fill="#C6CFD7"/>
<path d="M16.4062 17.7188C16.4062 16.6333 15.5229 15.75 14.4375 15.75C13.3521 15.75 12.4688 16.6333 12.4688 17.7188C12.4688 18.8042 13.3521 19.6875 14.4375 19.6875C15.5229 19.6875 16.4062 18.8042 16.4062 17.7188Z" fill="#C6CFD7"/>
</svg>
