<svg width="19" height="19" viewBox="0 0 19 19" fill="none" xmlns="http://www.w3.org/2000/svg">
<path fill-rule="evenodd" clip-rule="evenodd" d="M13.6193 8.54678L15.0412 7.12492C15.4729 6.69327 15.6887 6.47744 15.8041 6.24462C16.0236 5.80164 16.0236 5.28155 15.8041 4.83856C15.6887 4.60574 15.4729 4.38991 15.0412 3.95826C14.6095 3.5266 14.3937 3.31077 14.1609 3.1954C13.7179 2.97588 13.1978 2.97588 12.7548 3.1954C12.522 3.31077 12.3062 3.5266 11.8745 3.95826L10.4347 5.39805C11.1978 6.70477 12.2952 7.79376 13.6193 8.54678ZM9.2833 6.5495L3.84417 11.9886L3.84416 11.9886C3.50766 12.3251 3.33941 12.4934 3.22879 12.7001C3.11816 12.9068 3.0715 13.1401 2.97817 13.6068L2.49098 16.0427C2.43832 16.306 2.41198 16.4377 2.48688 16.5126C2.56178 16.5875 2.69344 16.5611 2.95675 16.5085L5.3927 16.0213C5.85935 15.928 6.09267 15.8813 6.29937 15.7707C6.50608 15.66 6.67433 15.4918 7.01084 15.1553L12.4649 9.7012C11.1811 8.89715 10.0952 7.81867 9.2833 6.5495Z" fill="#506FDE"/>
</svg>
