<svg width="29" height="34" viewBox="0 0 29 34" fill="none" xmlns="http://www.w3.org/2000/svg">
<path d="M24.5354 9.76187L3.87107 2.87377C3.24542 2.66522 2.93259 2.56095 2.7163 2.71684C2.5 2.87274 2.5 3.20249 2.5 3.86198V19.0834L24.5354 11.7383L24.5354 11.7383C25.761 11.3297 26.3738 11.1255 26.3738 10.7501C26.3738 10.3747 25.761 10.1704 24.5354 9.76187Z" fill="#9597A1"/>
<path d="M2.5 19.0834V3.86198C2.5 3.20249 2.5 2.87274 2.7163 2.71684C2.93259 2.56095 3.24542 2.66522 3.87107 2.87377L24.5354 9.76187C25.761 10.1704 26.3738 10.3747 26.3738 10.7501C26.3738 11.1255 25.761 11.3297 24.5354 11.7383L2.5 19.0834ZM2.5 19.0834V29.5001V31.5834" stroke="#9597A1" stroke-width="4.16667" stroke-linecap="round"/>
</svg>
