<svg width="8" height="8" viewBox="0 0 8 8" fill="none" xmlns="http://www.w3.org/2000/svg">
<path d="M0.758362 7.90374C0.562224 7.91514 0.36933 7.84994 0.220356 7.72187C-0.0734519 7.42632 -0.0734519 6.94898 0.220356 6.65342L6.65377 0.21998C6.95936 -0.0659674 7.43887 -0.0500717 7.72482 0.255514C7.98339 0.531853 7.99847 0.956594 7.76011 1.25055L1.28878 7.72187C1.14173 7.84809 0.951929 7.91317 0.758362 7.90374Z" fill="#506FDE"/>
<path d="M7.18418 7.90376C6.9854 7.90291 6.79488 7.824 6.65374 7.68401L0.220294 1.25054C-0.0519029 0.93268 -0.0148963 0.454314 0.302967 0.182091C0.586668 -0.0608599 1.00507 -0.0608599 1.28875 0.182091L7.76007 6.61554C8.06558 6.90156 8.08138 7.3811 7.79535 7.68661C7.78398 7.69876 7.77222 7.71051 7.76007 7.72189C7.60161 7.85969 7.39307 7.92554 7.18418 7.90376Z" fill="#506FDE"/>
</svg>
