<svg width="15" height="16" viewBox="0 0 15 16" fill="none" xmlns="http://www.w3.org/2000/svg">
<path fill-rule="evenodd" clip-rule="evenodd" d="M1.3749 3.68754C0.698354 3.68754 0.149902 4.23599 0.149902 4.91254C0.149902 5.58909 0.698354 6.13754 1.3749 6.13754H1.64121C1.71965 6.13754 1.78324 6.20112 1.78324 6.27957V10.2209C1.78324 12.1251 1.78324 13.0773 2.12756 13.8157C2.4927 14.5987 3.12206 15.2281 3.90511 15.5932C4.64351 15.9375 5.59564 15.9375 7.4999 15.9375C9.40417 15.9375 10.3563 15.9375 11.0947 15.5932C11.8777 15.2281 12.5071 14.5987 12.8723 13.8157C13.2166 13.0773 13.2166 12.1251 13.2166 10.2209V6.27957C13.2166 6.20112 13.2802 6.13754 13.3586 6.13754H13.6249C14.3015 6.13754 14.8499 5.58909 14.8499 4.91254C14.8499 4.23599 14.3015 3.68754 13.6249 3.68754H1.3749ZM6.68305 7.7717C6.68305 7.09515 6.1346 6.5467 5.45805 6.5467C4.7815 6.5467 4.23305 7.09515 4.23305 7.7717V11.855C4.23305 12.5316 4.7815 13.08 5.45805 13.08C6.1346 13.08 6.68305 12.5316 6.68305 11.855V7.7717ZM10.7664 7.7717C10.7664 7.09515 10.2179 6.5467 9.54138 6.5467C8.86483 6.5467 8.31638 7.09515 8.31638 7.7717V11.855C8.31638 12.5316 8.86483 13.08 9.54138 13.08C10.2179 13.08 10.7664 12.5316 10.7664 11.855V7.7717Z" fill="#EF4722"/>
<path fill-rule="evenodd" clip-rule="evenodd" d="M8.72481 0.119134C8.34808 0.0468654 7.91926 0.0128174 7.49971 0.0128174C7.08017 0.0128174 6.65135 0.0468655 6.27462 0.119134C6.0863 0.15526 5.89339 0.204243 5.71237 0.27197C5.55248 0.331796 5.30445 0.441285 5.08635 0.644781C4.59168 1.10632 4.56481 1.88148 5.02635 2.37615C5.44411 2.82391 6.11883 2.88839 6.60991 2.55431C6.61402 2.55315 6.61847 2.55193 6.62324 2.55065C6.65228 2.54289 6.68978 2.53416 6.73619 2.52526C6.92996 2.48809 7.20015 2.46282 7.49971 2.46282C7.79928 2.46282 8.06946 2.48809 8.26324 2.52526C8.30965 2.53416 8.34715 2.54289 8.37619 2.55065C8.38096 2.55193 8.38541 2.55315 8.38952 2.55431C8.8806 2.88839 9.55532 2.82391 9.97308 2.37615C10.4346 1.88148 10.4078 1.10632 9.91308 0.64478C9.69497 0.441285 9.44695 0.331796 9.28705 0.27197C9.10604 0.204243 8.91313 0.15526 8.72481 0.119134Z" fill="#EF4722"/>
</svg>
