<svg width="38" height="38" viewBox="0 0 38 38" xmlns="http://www.w3.org/2000/svg">
<path fill-rule="evenodd" clip-rule="evenodd" d="M19.0005 6V12.5L19.0005 12.5707V12.5708C19.0004 13.122 19.0003 13.6578 19.0597 14.0997C19.1267 14.5978 19.2898 15.1663 19.762 15.6385C20.2342 16.1107 20.8027 16.2738 21.3008 16.3408C21.7427 16.4002 22.2785 16.4001 22.8298 16.4L22.9005 16.4H29.4001V24.2C29.4001 27.877 29.4001 29.7154 28.2578 30.8577C27.1155 32 25.2771 32 21.6001 32H16.4001C12.7231 32 10.8847 32 9.74238 30.8577C8.6001 29.7154 8.6001 27.877 8.6001 24.2V13.8C8.6001 10.123 8.6001 8.28457 9.74238 7.14228C10.8847 6 12.7231 6 16.4001 6H19.0005ZM21.6005 6.00602V12.5C21.6005 13.1496 21.6032 13.506 21.6365 13.7532L21.6378 13.7627L21.6473 13.764C21.8945 13.7972 22.2509 13.8 22.9005 13.8H29.3941C29.3808 13.2649 29.3384 12.9107 29.2022 12.582C29.0043 12.1042 28.6285 11.7284 27.8771 10.977L24.4231 7.52304C23.6717 6.77157 23.2959 6.39583 22.8181 6.19791C22.4894 6.06177 22.1354 6.01928 21.6005 6.00602Z"/>
</svg>
