<svg width="38" height="38" viewBox="0 0 38 38" xmlns="http://www.w3.org/2000/svg">
<path d="M19.277 16.4444C15.9347 16.4444 13.1104 14.5616 13.1104 12.3333C13.1104 10.1051 15.9347 8.22222 19.277 8.22222C21.1682 8.22222 22.9195 8.81422 24.0788 9.842C24.9257 10.5943 26.2207 10.5244 26.9813 9.66933C27.7377 8.82245 27.6596 7.52333 26.8086 6.76689C25.3697 5.48833 23.4375 4.625 21.3326 4.28378V2.05556C21.3326 0.920889 20.4117 0 19.277 0C18.1424 0 17.2215 0.920889 17.2215 2.05556V4.27556C12.5348 5.04022 8.99927 8.362 8.99927 12.3333C8.99927 16.8679 13.6119 20.5556 19.277 20.5556C22.6194 20.5556 25.4437 22.4384 25.4437 24.6667C25.4437 26.8949 22.6194 28.7778 19.277 28.7778C17.3859 28.7778 15.6346 28.1858 14.4753 27.158C13.6284 26.4016 12.3293 26.4756 11.5728 27.3307C10.8164 28.1776 10.8945 29.4767 11.7455 30.2331C13.1844 31.5158 15.1166 32.375 17.2215 32.7203V34.9444C17.2215 36.0791 18.1424 37 19.277 37C20.4117 37 21.3326 36.0791 21.3326 34.9444V32.7244C26.0193 31.9598 29.5548 28.638 29.5548 24.6667C29.5548 20.1321 24.9422 16.4444 19.277 16.4444Z" />
</svg>
