<svg width="20" height="20" viewBox="0 0 20 20" fill="none" xmlns="http://www.w3.org/2000/svg">
<circle cx="10.0002" cy="10" r="7.5" fill="#EF4722" stroke="#EF4722" stroke-width="1.66667"/>
<path d="M13.6958 7.77268L10.9688 10.4999L13.6958 13.227C14.1014 13.6328 14.1014 14.2901 13.6958 14.6958C13.4931 14.8985 13.2274 14.9999 12.9618 14.9999C12.6958 14.9999 12.4301 14.8987 12.2275 14.6958L9.50001 11.9684L6.77268 14.6958C6.57003 14.8985 6.3043 14.9999 6.03848 14.9999C5.77275 14.9999 5.50719 14.8986 5.30437 14.6958C4.89875 14.2902 4.89875 13.6329 5.30437 13.227L8.03123 10.4999L5.30421 7.77268C4.8986 7.36706 4.8986 6.7096 5.30421 6.30398C5.70976 5.89867 6.36682 5.89867 6.77252 6.30398L9.49998 9.03121L12.2272 6.30398C12.633 5.89867 13.2902 5.89867 13.6956 6.30398C14.1014 6.7096 14.1014 7.36706 13.6958 7.77268Z" fill="white"/>
</svg>
