<svg width="17" height="17" viewBox="0 0 17 17" fill="none" xmlns="http://www.w3.org/2000/svg">
<path fill-rule="evenodd" clip-rule="evenodd" d="M7.99779 3.80993L9.03317 2.51571C8.41079 2.30588 7.7442 2.19214 7.05104 2.19214C3.62656 2.19214 0.850477 4.96823 0.850477 8.3927C0.850477 11.8172 3.62656 14.5933 7.05104 14.5933C7.74421 14.5933 8.41081 14.4795 9.0332 14.2697L7.99783 12.9755C7.69206 13.0383 7.3754 13.0713 7.05104 13.0713C4.46711 13.0713 2.37243 10.9766 2.37243 8.3927C2.37243 5.80878 4.46711 3.71409 7.05104 3.71409C7.37539 3.71409 7.69203 3.7471 7.99779 3.80993Z" fill="#D1D3D5"/>
<path d="M11.5845 3.85974L15.2109 8.39273M15.2109 8.39273L11.5845 12.9257M15.2109 8.39273L7.95815 8.39273" stroke="#CCD2E3" stroke-width="1.52195" stroke-linecap="round" stroke-linejoin="round"/>
</svg>
