<svg width="38" height="38" viewBox="0 0 38 38" fill="none" xmlns="http://www.w3.org/2000/svg">
<g opacity="0.79">
<path d="M36.0357 17.9907C35.7238 17.597 28.2924 8.34912 18.8012 8.34912C9.31002 8.34912 1.87831 17.597 1.56676 17.9904C1.27137 18.3639 1.27137 18.8706 1.56676 19.2442C1.87831 19.6379 9.31002 28.8858 18.8012 28.8858C28.2924 28.8858 35.7238 19.6379 36.0357 19.2445C36.3315 18.871 36.3315 18.3639 36.0357 17.9907ZM18.8012 26.7613C11.8099 26.7613 5.75475 20.6233 3.96228 18.6167C5.75243 16.6084 11.7949 10.4736 18.8012 10.4736C25.7922 10.4736 31.847 16.6105 33.6402 18.6182C31.85 20.6265 25.8075 26.7613 18.8012 26.7613Z" fill="#969EA8"/>
<path fill-rule="evenodd" clip-rule="evenodd" d="M1.57018 19.2442C1.27479 18.8706 1.27479 18.3639 1.57018 17.9904C1.88173 17.597 9.31344 8.34912 18.8046 8.34912C28.2959 8.34912 35.7272 17.597 36.0391 17.9907C36.3349 18.3639 36.3349 18.871 36.0391 19.2445C35.7272 19.6379 28.2959 28.8858 18.8046 28.8858C9.31344 28.8858 1.88173 19.6379 1.57018 19.2442ZM1.29633 17.7738L1.29649 17.7736C1.46158 17.5652 3.41776 15.1305 6.53278 12.745C9.64292 10.3633 13.9483 8 18.8046 8C23.661 8 27.9663 10.3633 31.0764 12.7451C34.1909 15.1302 36.147 17.5646 36.3127 17.7739C36.7093 18.2742 36.7091 18.9608 36.3128 19.4612L36.3127 19.4614C36.1476 19.6697 34.1914 22.1044 31.0764 24.4898C27.9663 26.8716 23.661 29.2349 18.8046 29.2349C13.9483 29.2349 9.64292 26.8716 6.53278 24.4898C3.41778 22.1043 1.46159 19.6696 1.29639 19.4608L1.29633 19.4607C0.900574 18.9602 0.900574 18.2743 1.29633 17.7738ZM9.63264 23.1533C12.2163 24.9194 15.4084 26.4122 18.8046 26.4122C22.2085 26.4122 25.4013 24.92 27.9831 23.1547C30.3736 21.5202 32.2128 19.6703 33.1732 18.6184C32.2111 17.5667 30.3684 15.7163 27.9763 14.0812C25.3927 12.3153 22.2007 10.8227 18.8046 10.8227C15.4008 10.8227 12.208 12.3149 9.62618 14.0802C7.23573 15.7147 5.39654 17.5646 4.43615 18.6165C5.39797 19.6678 7.24057 21.5181 9.63264 23.1533ZM3.9657 18.6167C5.75585 16.6084 11.7984 10.4736 18.8046 10.4736C25.7956 10.4736 31.8504 16.6105 33.6436 18.6182C31.8534 20.6265 25.8109 26.7613 18.8046 26.7613C11.8134 26.7613 5.75817 20.6233 3.9657 18.6167Z" fill="#969EA8"/>
</g>
<circle opacity="0.79" cx="18.4596" cy="18.6171" r="3.42277" fill="#969EA8"/>
</svg>
