<svg width="19" height="19" viewBox="0 0 19 19" fill="none" xmlns="http://www.w3.org/2000/svg">
<path d="M2.375 7.91675C2.375 5.67758 2.375 4.55799 3.07062 3.86237C3.76624 3.16675 4.88583 3.16675 7.125 3.16675H11.875C14.1142 3.16675 15.2338 3.16675 15.9294 3.86237C16.625 4.55799 16.625 5.67758 16.625 7.91675V11.0834C16.625 13.3226 16.625 14.4422 15.9294 15.1378C15.2338 15.8334 14.1142 15.8334 11.875 15.8334H7.125C4.88583 15.8334 3.76624 15.8334 3.07062 15.1378C2.375 14.4422 2.375 13.3226 2.375 11.0834V7.91675Z" stroke="#CCD2E3" stroke-width="1.5"/>
<path d="M6.3335 3.16675V3.16675C6.91903 3.16675 7.2118 3.16675 7.46947 3.25851C7.68052 3.33367 7.87321 3.45276 8.03482 3.60792C8.23213 3.79735 8.36306 4.0592 8.62492 4.58292L9.41658 6.16626C9.84243 7.01796 10.0554 7.44381 10.438 7.68028C10.8206 7.91675 11.2967 7.91675 12.2489 7.91675H13.4585C14.9513 7.91675 15.6977 7.91675 16.1614 8.3805C16.6252 8.84424 16.6252 9.59063 16.6252 11.0834V12.6667" stroke="#CCD2E3" stroke-width="1.58333"/>
</svg>
