<svg width="19" height="19" viewBox="0 0 19 19" fill="none" xmlns="http://www.w3.org/2000/svg">
<path d="M2.375 7.9167C2.375 5.67753 2.375 4.55794 3.07062 3.86232C3.76624 3.1667 4.88583 3.1667 7.125 3.1667H11.875C14.1142 3.1667 15.2338 3.1667 15.9294 3.86232C16.625 4.55794 16.625 5.67753 16.625 7.9167V11.0834C16.625 13.3225 16.625 14.4421 15.9294 15.1377C15.2338 15.8334 14.1142 15.8334 11.875 15.8334H7.125C4.88583 15.8334 3.76624 15.8334 3.07062 15.1377C2.375 14.4421 2.375 13.3225 2.375 11.0834V7.9167Z" stroke="#CCD2E3" stroke-width="1.5"/>
<path d="M6.3335 3.1667V3.1667C6.91903 3.1667 7.2118 3.1667 7.46947 3.25847C7.68052 3.33363 7.87321 3.45272 8.03482 3.60787C8.23213 3.7973 8.36306 4.05916 8.62492 4.58288L9.41658 6.16621C9.84243 7.01791 10.0554 7.44376 10.438 7.68023C10.8206 7.9167 11.2967 7.9167 12.2489 7.9167H13.4585C14.9513 7.9167 15.6977 7.9167 16.1614 8.38045C16.6252 8.8442 16.6252 9.59059 16.6252 11.0834V12.6667" stroke="#CCD2E3" stroke-width="1.58333"/>
</svg>
