<svg width="15" height="17" viewBox="0 0 15 17" fill="none" xmlns="http://www.w3.org/2000/svg">
<path fill-rule="evenodd" clip-rule="evenodd" d="M1.48667 0.775982C0.9375 1.32516 0.9375 2.20904 0.9375 3.97681V12.4143C0.9375 14.1821 0.9375 15.066 1.48667 15.6151C2.03585 16.1643 2.91973 16.1643 4.6875 16.1643H10.3125C12.0803 16.1643 12.9642 16.1643 13.5133 15.6151C14.0625 15.066 14.0625 14.1821 14.0625 12.4143V3.97681C14.0625 2.20904 14.0625 1.32516 13.5133 0.775982C12.9642 0.226807 12.0803 0.226807 10.3125 0.226807H4.6875C2.91973 0.226807 2.03585 0.226807 1.48667 0.775982ZM4.68739 3.97696C4.16962 3.97696 3.74989 4.39669 3.74989 4.91446C3.74989 5.43223 4.16962 5.85196 4.68739 5.85196H10.3124C10.8302 5.85196 11.2499 5.43223 11.2499 4.91446C11.2499 4.39669 10.8302 3.97696 10.3124 3.97696H4.68739ZM4.68739 7.72696C4.16962 7.72696 3.74989 8.14669 3.74989 8.66446C3.74989 9.18223 4.16962 9.60196 4.68739 9.60196H10.3124C10.8302 9.60196 11.2499 9.18223 11.2499 8.66446C11.2499 8.14669 10.8302 7.72696 10.3124 7.72696H4.68739ZM4.68739 11.477C4.16962 11.477 3.74989 11.8967 3.74989 12.4145C3.74989 12.9322 4.16962 13.352 4.68739 13.352H8.43739C8.95515 13.352 9.37489 12.9322 9.37489 12.4145C9.37489 11.8967 8.95515 11.477 8.43739 11.477H4.68739Z" fill="white"/>
</svg>
