<svg width="12" height="21" viewBox="0 0 12 21" fill="none" xmlns="http://www.w3.org/2000/svg">
<path d="M6.00003 9.30561C4.17982 9.30561 2.64171 8.2802 2.64171 7.06673C2.64171 5.85326 4.17982 4.82785 6.00003 4.82785C7.02991 4.82785 7.98367 5.15025 8.61504 5.70997C9.07625 6.11969 9.78149 6.08163 10.1957 5.61594C10.6076 5.15473 10.5651 4.44724 10.1017 4.03529C9.31804 3.339 8.26577 2.86883 7.11947 2.68301V1.46954C7.11947 0.851606 6.61796 0.350098 6.00003 0.350098C5.3821 0.350098 4.88059 0.851606 4.88059 1.46954V2.67853C2.32827 3.09496 0.402832 4.90398 0.402832 7.06673C0.402832 9.53621 2.91485 11.5445 6.00003 11.5445C7.82024 11.5445 9.35835 12.5699 9.35835 13.7834C9.35835 14.9968 7.82024 16.0222 6.00003 16.0222C4.97014 16.0222 4.01638 15.6998 3.38502 15.1401C2.92381 14.7282 2.21632 14.7685 1.80437 15.2342C1.39242 15.6954 1.43496 16.4029 1.8984 16.8148C2.68201 17.5133 3.73428 17.9813 4.88059 18.1693V19.3806C4.88059 19.9985 5.3821 20.5 6.00003 20.5C6.61796 20.5 7.11947 19.9985 7.11947 19.3806V18.1716C9.67179 17.7551 11.5972 15.9461 11.5972 13.7834C11.5972 11.3139 9.0852 9.30561 6.00003 9.30561Z" fill="white"/>
</svg>
