<svg width="10" height="19" viewBox="0 0 10 19" fill="none" xmlns="http://www.w3.org/2000/svg">
<path d="M5 8.20001C3.374 8.20001 2 7.28401 2 6.20001C2 5.11601 3.374 4.20001 5 4.20001C5.92 4.20001 6.772 4.48801 7.336 4.98801C7.748 5.35401 8.378 5.32001 8.748 4.90401C9.116 4.49201 9.078 3.86001 8.664 3.49201C7.964 2.87001 7.024 2.45001 6 2.28401V1.20001C6 0.648012 5.552 0.200012 5 0.200012C4.448 0.200012 4 0.648012 4 1.20001V2.28001C1.72 2.65201 0 4.26801 0 6.20001C0 8.40601 2.244 10.2 5 10.2C6.626 10.2 8 11.116 8 12.2C8 13.284 6.626 14.2 5 14.2C4.08 14.2 3.228 13.912 2.664 13.412C2.252 13.044 1.62 13.08 1.252 13.496C0.884 13.908 0.922 14.54 1.336 14.908C2.036 15.532 2.976 15.95 4 16.118V17.2C4 17.752 4.448 18.2 5 18.2C5.552 18.2 6 17.752 6 17.2V16.12C8.28 15.748 10 14.132 10 12.2C10 9.99401 7.756 8.20001 5 8.20001Z" fill="#CCD2E3"/>
</svg>
