<svg width="21" height="22" viewBox="0 0 21 22" fill="none" xmlns="http://www.w3.org/2000/svg">
<path d="M17.5 11V15.375C17.5 17.0249 17.5 17.8499 16.9874 18.3624C16.4749 18.875 15.6499 18.875 14 18.875H5.6875C4.47938 18.875 3.5 17.8956 3.5 16.6875V16.6875C3.5 15.4794 4.47938 14.5 5.6875 14.5H14C15.6499 14.5 16.4749 14.5 16.9874 13.9874C17.5 13.4749 17.5 12.6499 17.5 11V6.625C17.5 4.97508 17.5 4.15013 16.9874 3.63756C16.4749 3.125 15.6499 3.125 14 3.125H7C5.35008 3.125 4.52513 3.125 4.01256 3.63756C3.5 4.15013 3.5 4.97508 3.5 6.625V16.6875" stroke="#CCD2E3" stroke-width="1.45"/>
<path d="M7.875 9.25L9.00628 10.3813C9.34799 10.723 9.90201 10.723 10.2437 10.3813L13.125 7.5" stroke="#CCD2E3" stroke-width="1.575" stroke-linecap="round"/>
</svg>
