<svg width="38" height="38" viewBox="0 0 38 38" fill="none" xmlns="http://www.w3.org/2000/svg">
<path d="M5 18.7039C5 15.9732 5 14.6079 5.55199 13.4078C6.10397 12.2076 7.14061 11.3191 9.21389 9.54198L11.2251 7.81813C14.9725 4.60604 16.8462 3 19.0781 3C21.3101 3 23.1838 4.60604 26.9312 7.81813L28.9424 9.54198C31.0156 11.3191 32.0523 12.2076 32.6043 13.4078C33.1563 14.6079 33.1563 15.9732 33.1563 18.7039V27.232C33.1563 31.0243 33.1563 32.9204 31.9781 34.0985C30.8 35.2767 28.9039 35.2767 25.1116 35.2767H13.0446C9.25236 35.2767 7.35622 35.2767 6.17811 34.0985C5 32.9204 5 31.0243 5 27.232V18.7039Z"/>
<path d="M24.1056 35.2767V25.2209C24.1056 24.1101 23.2052 23.2097 22.0945 23.2097H16.061C14.9502 23.2097 14.0498 24.1101 14.0498 25.2209V35.2767" />
</svg>
