<svg width="58" height="58" viewBox="0 0 58 58" fill="none" xmlns="http://www.w3.org/2000/svg">
<circle cx="28.9658" cy="28.9999" r="28.5" fill="#F1F5F9"/>
<path d="M34.5864 20.1978L34.5864 20.1977C33.5424 19.2701 32.1585 18.6383 30.6533 18.3677V16.8999C30.6533 15.9683 29.8974 15.2124 28.9658 15.2124C28.0343 15.2124 27.2783 15.9683 27.2783 16.8999V18.3619C23.8777 18.9773 21.2783 21.4257 21.2783 24.3999C21.2783 27.8494 24.7695 30.5874 28.9658 30.5874C30.152 30.5874 31.2401 30.9219 32.0264 31.4462C32.8155 31.9722 33.2783 32.6713 33.2783 33.3999C33.2783 34.1285 32.8155 34.8276 32.0264 35.3536C31.2401 35.8779 30.152 36.2124 28.9658 36.2124C27.6213 36.2124 26.391 35.791 25.5863 35.0777C24.891 34.457 23.8245 34.5179 23.2037 35.2193C22.5825 35.9152 22.6474 36.9815 23.3451 37.6019C24.3893 38.5327 25.7735 39.1618 27.2783 39.4348V40.8999C27.2783 41.8315 28.0343 42.5874 28.9658 42.5874C29.8974 42.5874 30.6533 41.8315 30.6533 40.8999V39.4379C34.054 38.8225 36.6533 36.3741 36.6533 33.3999C36.6533 29.9504 33.1621 27.2124 28.9658 27.2124C27.7796 27.2124 26.6916 26.8779 25.9052 26.3536C25.1162 25.8276 24.6533 25.1285 24.6533 24.3999C24.6533 23.6713 25.1162 22.9722 25.9052 22.4462C26.6916 21.9219 27.7796 21.5874 28.9658 21.5874C30.3103 21.5874 31.5407 22.0088 32.3453 22.7221C33.0404 23.3395 34.1037 23.2821 34.7278 22.5807C35.3492 21.8848 35.2843 20.8181 34.5864 20.1978Z" fill="#506FDE" stroke="#506FDE" stroke-width="0.375"/>
</svg>
