<svg width="58" height="58" viewBox="0 0 58 58" fill="none" xmlns="http://www.w3.org/2000/svg">
<circle cx="28.8975" cy="28.9999" r="28.5" fill="#F1F5F9"/>
<path fill-rule="evenodd" clip-rule="evenodd" d="M35.6673 28.2083H42.1257V23.6875C42.1257 21.9041 40.6799 20.4583 38.8965 20.4583C37.1131 20.4583 35.6673 21.9041 35.6673 23.6875V28.2083ZM33.084 28.2087L32.9564 41.0824L29.209 39.8333L25.334 41.125L21.459 39.8333L17.584 41.125V23.0417C17.584 20.6061 17.584 19.3883 18.3406 18.6316C19.0973 17.875 20.3151 17.875 22.7507 17.875H35.6673C36.7416 17.875 37.5761 17.875 38.2554 17.9099C35.3469 18.2291 33.084 20.694 33.084 23.6875V28.2087ZM20.1673 23.0416C20.1673 22.3283 20.7456 21.75 21.459 21.75H29.209C29.9224 21.75 30.5007 22.3283 30.5007 23.0416C30.5007 23.755 29.9224 24.3333 29.209 24.3333H21.459C20.7456 24.3333 20.1673 23.755 20.1673 23.0416ZM20.1673 28.2083C20.1673 27.4949 20.7456 26.9166 21.459 26.9166H24.0423C24.7557 26.9166 25.334 27.4949 25.334 28.2083C25.334 28.9217 24.7557 29.5 24.0423 29.5H21.459C20.7456 29.5 20.1673 28.9217 20.1673 28.2083ZM20.1673 33.375C20.1673 32.6616 20.7456 32.0833 21.459 32.0833H26.6257C27.339 32.0833 27.9173 32.6616 27.9173 33.375C27.9173 34.0883 27.339 34.6666 26.6257 34.6666H21.459C20.7456 34.6666 20.1673 34.0883 20.1673 33.375Z" fill="#506FDE"/>
</svg>
