<svg width="57" height="58" viewBox="0 0 57 58" fill="none" xmlns="http://www.w3.org/2000/svg">
<circle cx="28.5" cy="28.9999" r="28.5" fill="#F1F5F9"/>
<path fill-rule="evenodd" clip-rule="evenodd" d="M18.6111 16.5696C17.708 17.4727 17.708 18.9262 17.708 21.8332V35.7082C17.708 38.6152 17.708 40.0687 18.6111 40.9717C19.5142 41.8748 20.9677 41.8748 23.8747 41.8748H33.1247C36.0317 41.8748 37.4852 41.8748 38.3883 40.9717C39.2913 40.0687 39.2913 38.6152 39.2913 35.7082V21.8332C39.2913 18.9262 39.2913 17.4727 38.3883 16.5696C37.4852 15.6665 36.0317 15.6665 33.1247 15.6665H23.8747C20.9677 15.6665 19.5142 15.6665 18.6111 16.5696ZM23.8748 21.8331C23.0233 21.8331 22.3331 22.5234 22.3331 23.3748C22.3331 24.2263 23.0233 24.9165 23.8748 24.9165H33.1248C33.9762 24.9165 34.6664 24.2263 34.6664 23.3748C34.6664 22.5234 33.9762 21.8331 33.1248 21.8331H23.8748ZM23.8748 27.9998C23.0233 27.9998 22.3331 28.69 22.3331 29.5415C22.3331 30.3929 23.0233 31.0832 23.8748 31.0832H33.1248C33.9762 31.0832 34.6664 30.3929 34.6664 29.5415C34.6664 28.69 33.9762 27.9998 33.1248 27.9998H23.8748ZM23.8748 34.1665C23.0233 34.1665 22.3331 34.8567 22.3331 35.7082C22.3331 36.5596 23.0233 37.2498 23.8748 37.2498H30.0414C30.8929 37.2498 31.5831 36.5596 31.5831 35.7082C31.5831 34.8567 30.8929 34.1665 30.0414 34.1665H23.8748Z" fill="#506FDE"/>
<path d="M40.7833 48.0008C40.783 48.3865 40.9389 48.7407 41.1924 48.9943C41.4445 49.2467 41.7942 49.4077 42.1818 49.4077H46.1039V53.3181C46.1039 53.7035 46.2572 54.0545 46.5115 54.3082C46.7645 54.5611 47.1135 54.7183 47.5004 54.7183C48.2738 54.7183 48.8995 54.0909 48.8995 53.3181V49.4074H52.8165C53.591 49.4074 54.217 48.7746 54.2167 48.0022C54.2163 47.2304 53.5905 46.5972 52.8165 46.5972H48.8995V42.6837C48.8995 41.9109 48.2756 41.2832 47.5016 41.2832C46.7274 41.2832 46.1039 41.911 46.1039 42.684V46.6001H42.185C41.4119 46.6001 40.7831 47.2268 40.7833 48.0008ZM40.7833 48.0008C40.7833 48.0008 40.7833 48.0007 40.7833 48.0007L41 48.0009L40.7833 48.001C40.7833 48.0009 40.7833 48.0009 40.7833 48.0008ZM46.1039 49.191H46.3206V49.4077L46.1039 49.191Z" fill="#506FDE" stroke="#506FDE" stroke-width="0.433333"/>
</svg>
