<svg width="58" height="58" viewBox="0 0 58 58" fill="none" xmlns="http://www.w3.org/2000/svg">
<circle cx="29.4297" cy="28.9999" r="28.5" fill="#F1F5F9"/>
<path fill-rule="evenodd" clip-rule="evenodd" d="M29.4297 41.125C35.85 41.125 41.0547 35.9203 41.0547 29.5C41.0547 23.0797 35.85 17.875 29.4297 17.875C23.0094 17.875 17.8047 23.0797 17.8047 29.5C17.8047 35.9203 23.0094 41.125 29.4297 41.125ZM30.7214 22.3958C30.7214 21.6825 30.1431 21.1042 29.4297 21.1042C28.7163 21.1042 28.138 21.6825 28.138 22.3958V29.1771C28.138 30.0688 28.8609 30.7917 29.7526 30.7917H33.9505C34.6639 30.7917 35.2422 30.2134 35.2422 29.5C35.2422 28.7866 34.6639 28.2083 33.9505 28.2083H30.7214V22.3958Z" fill="#506FDE"/>
</svg>
