<svg width="25" height="25" viewBox="0 0 25 25" fill="none" xmlns="http://www.w3.org/2000/svg">
<path d="M14.3092 22.7583C15.6563 22.5208 16.9435 22.0202 18.0972 21.2852C19.2509 20.5503 20.2485 19.5952 21.0332 18.4747C21.8178 17.3541 22.374 16.09 22.6701 14.7545C22.9662 13.419 22.9963 12.0382 22.7587 10.6911C22.5212 9.34393 22.0206 8.05675 21.2857 6.90305C20.5507 5.74934 19.5956 4.7517 18.4751 3.96708C17.3545 3.18247 16.0904 2.62624 14.7549 2.33017C13.4194 2.03409 12.0386 2.00396 10.6915 2.2415C9.34433 2.47904 8.05716 2.9796 6.90345 3.71459C5.74975 4.44958 4.75211 5.40462 3.96749 6.52517C3.18287 7.64571 2.62665 8.90983 2.33057 10.2453C2.0345 11.5809 2.00437 12.9616 2.24191 14.3088C2.47945 15.6559 2.98001 16.9431 3.715 18.0968C4.44999 19.2505 5.40502 20.2481 6.52557 21.0328C7.64612 21.8174 8.91024 22.3736 10.2457 22.6697C11.5813 22.9657 12.962 22.9959 14.3092 22.7583L14.3092 22.7583Z" stroke="#D1D3D5" stroke-width="1.8"/>
<path d="M12.5 12.5L12.5 18.75" stroke="#D1D3D5" stroke-width="1.8" stroke-linecap="round" stroke-linejoin="round"/>
<path d="M12.5 7.29175L12.5 6.25008" stroke="#D1D3D5" stroke-width="1.8" stroke-linecap="round" stroke-linejoin="round"/>
</svg>
