<svg width="19" height="20" viewBox="0 0 19 20" fill="none" xmlns="http://www.w3.org/2000/svg">
<g clip-path="url(#clip0_409:2734)">
<path d="M9.50078 19.0499C10.5458 19.0499 11.4008 18.1949 11.4008 17.1499H7.60078C7.60078 18.1949 8.45578 19.0499 9.50078 19.0499ZM15.6758 13.3499V8.12493C15.6758 5.17993 13.6808 2.80493 10.9258 2.13993V1.47493C10.9258 0.714927 10.2608 0.0499268 9.50078 0.0499268C8.74078 0.0499268 8.07578 0.714927 8.07578 1.47493V2.13993C5.32078 2.80493 3.32578 5.17993 3.32578 8.12493V13.3499L1.42578 15.2499V16.1999H17.5758V15.2499L15.6758 13.3499ZM13.7758 14.2999H5.22578V8.12493C5.22578 5.74993 7.12578 3.84993 9.50078 3.84993C11.8758 3.84993 13.7758 5.74993 13.7758 8.12493V14.2999Z" fill="#CCD2E3"/>
</g>
<defs>
<clipPath id="clip0_409:2734">
<rect width="19" height="19" fill="white" transform="translate(0 0.0499268)"/>
</clipPath>
</defs>
</svg>
