<svg width="38" height="38" viewBox="0 0 38 38" xmlns="http://www.w3.org/2000/svg">
<path fill-rule="evenodd" clip-rule="evenodd" d="M8.88219 6.88219C8 7.76439 8 9.18426 8 12.024V25.578C8 28.4177 8 29.8376 8.88219 30.7198C9.76439 31.602 11.1843 31.602 14.024 31.602H23.06C25.8997 31.602 27.3196 31.602 28.2018 30.7198C29.084 29.8376 29.084 28.4177 29.084 25.578V12.024C29.084 9.18426 29.084 7.76439 28.2018 6.88219C27.3196 6 25.8997 6 23.06 6H14.024C11.1843 6 9.76439 6 8.88219 6.88219ZM14.0263 12.024C13.1946 12.024 12.5203 12.6982 12.5203 13.53C12.5203 14.3617 13.1946 15.036 14.0263 15.036H23.0623C23.8941 15.036 24.5683 14.3617 24.5683 13.53C24.5683 12.6982 23.8941 12.024 23.0623 12.024H14.0263ZM14.0263 18.048C13.1946 18.048 12.5203 18.7222 12.5203 19.554C12.5203 20.3857 13.1946 21.06 14.0263 21.06H23.0623C23.8941 21.06 24.5683 20.3857 24.5683 19.554C24.5683 18.7222 23.8941 18.048 23.0623 18.048H14.0263ZM14.0263 24.072C13.1946 24.072 12.5203 24.7462 12.5203 25.578C12.5203 26.4097 13.1946 27.084 14.0263 27.084H20.0503C20.8821 27.084 21.5563 26.4097 21.5563 25.578C21.5563 24.7462 20.8821 24.072 20.0503 24.072H14.0263Z"/>
</svg>
