<svg width="16" height="16" viewBox="0 0 16 16" fill="none" xmlns="http://www.w3.org/2000/svg">
<path d="M8 0C3.58218 0 0 3.58148 0 7.99965C0 12.4178 3.58183 15.9993 8 15.9993C12.4185 15.9993 16 12.4178 16 7.99965C16 3.58148 12.4185 0 8 0ZM8 2.39199C9.46183 2.39199 10.6464 3.57691 10.6464 5.03804C10.6464 6.49952 9.46183 7.68409 8 7.68409C6.53887 7.68409 5.3543 6.49952 5.3543 5.03804C5.3543 3.57691 6.53887 2.39199 8 2.39199ZM7.99824 13.9078C6.54028 13.9078 5.20495 13.3768 4.175 12.4979C3.9241 12.2839 3.77932 11.9701 3.77932 11.6409C3.77932 10.159 4.97865 8.97303 6.46086 8.97303H9.53984C11.0224 8.97303 12.2172 10.159 12.2172 11.6409C12.2172 11.9705 12.0731 12.2836 11.8218 12.4976C10.7922 13.3768 9.45656 13.9078 7.99824 13.9078Z" fill="#232E45"/>
</svg>
