<svg width="18" height="18" viewBox="0 0 18 18" fill="none" xmlns="http://www.w3.org/2000/svg">
<path d="M8.01486 0.944458C4.11628 0.944458 0.944336 4.1164 0.944336 8.01499C0.944336 11.9138 4.11628 15.0855 8.01486 15.0855C11.9137 15.0855 15.0854 11.9138 15.0854 8.01499C15.0854 4.1164 11.9137 0.944458 8.01486 0.944458ZM8.01486 13.7802C4.83596 13.7802 2.24967 11.1939 2.24967 8.01502C2.24967 4.83611 4.83596 2.24979 8.01486 2.24979C11.1938 2.24979 13.7801 4.83608 13.7801 8.01499C13.7801 11.1939 11.1938 13.7802 8.01486 13.7802Z" fill="#969EA8"/>
<path d="M16.4614 15.3859L13.0672 12.1444C12.8123 11.8894 12.3993 11.8894 12.1444 12.1444C11.8894 12.3991 11.8894 12.8125 12.1444 13.0672L15.5386 16.3088C15.666 16.4362 15.8329 16.5 16 16.5C16.1669 16.5 16.3339 16.4362 16.4614 16.3088C16.7164 16.054 16.7164 15.6407 16.4614 15.3859Z" fill="#969EA8"/>
</svg>
