<svg width="32" height="32" viewBox="0 0 32 32" fill="none" xmlns="http://www.w3.org/2000/svg">
<path fill-rule="evenodd" clip-rule="evenodd" d="M15.4352 8.77194L16.9588 6.86751C15.9994 6.54693 14.9728 6.37329 13.9057 6.37329C8.58899 6.37329 4.27898 10.6833 4.27898 16C4.27898 21.3167 8.58899 25.6267 13.9057 25.6267C14.9729 25.6267 15.9996 25.453 16.959 25.1324L15.4355 23.228C14.9419 23.3319 14.4302 23.3866 13.9057 23.3866C9.82616 23.3866 6.51906 20.0795 6.51906 16C6.51906 11.9205 9.82616 8.61338 13.9057 8.61338C14.4301 8.61338 14.9417 8.66802 15.4352 8.77194Z" fill="#ECF2F4"/>
<path d="M20.9959 8.91113L26.667 16M26.667 16L20.9959 23.0889M26.667 16H15.3248" stroke="#ECF2F4" stroke-width="2.24008" stroke-linecap="round" stroke-linejoin="round"/>
</svg>
