<svg width="26" height="26" viewBox="0 0 26 26" fill="none" xmlns="http://www.w3.org/2000/svg">
<path d="M13 0C5.82105 0 0 5.81991 0 12.9994C0 20.179 5.82048 25.9989 13 25.9989C20.1801 25.9989 26 20.179 26 12.9994C26 5.81991 20.1801 0 13 0ZM13 3.88698C15.3755 3.88698 17.3004 5.81248 17.3004 8.18681C17.3004 10.5617 15.3755 12.4866 13 12.4866C10.6257 12.4866 8.70074 10.5617 8.70074 8.18681C8.70074 5.81248 10.6257 3.88698 13 3.88698ZM12.9971 22.6001C10.628 22.6001 8.45805 21.7373 6.78437 20.3091C6.37666 19.9614 6.1414 19.4515 6.1414 18.9164C6.1414 16.5084 8.09031 14.5812 10.4989 14.5812H15.5022C17.9114 14.5812 19.8529 16.5084 19.8529 18.9164C19.8529 19.452 19.6188 19.9608 19.2105 20.3086C17.5374 21.7373 15.3669 22.6001 12.9971 22.6001Z" fill="#506FDE"/>
</svg>
