<svg width="13" height="13" viewBox="0 0 13 13" fill="none" xmlns="http://www.w3.org/2000/svg">
<path d="M0.841251 5.02059C0.898535 5.01129 0.956508 5.007 1.01451 5.00775H9.81431L9.59895 4.90759C9.38843 4.80795 9.19692 4.67234 9.03299 4.50691L6.26331 1.73723C5.89854 1.38902 5.83725 0.82885 6.11806 0.409986C6.4449 -0.0363621 7.07167 -0.133276 7.51805 0.193558C7.55412 0.219977 7.58839 0.248776 7.6206 0.279766L12.6291 5.28823C13.0205 5.6792 13.0208 6.31343 12.6298 6.70484L12.6291 6.70562L7.6206 11.7141C7.22888 12.1047 6.59465 12.1038 6.20399 11.7121C6.17325 11.6813 6.14455 11.6485 6.11806 11.6139C5.83725 11.1951 5.89854 10.6349 6.26331 10.2867L9.02798 7.51199C9.17495 7.36486 9.34392 7.2415 9.52883 7.14637L9.82934 7.01114H1.06964C0.557928 7.03014 0.108981 6.67269 0.0128502 6.16972C-0.0757057 5.62364 0.295172 5.10918 0.841251 5.02059Z" fill="#C6CFD7"/>
</svg>
