<svg width="110" height="110" viewBox="0 0 110 110" fill="none" xmlns="http://www.w3.org/2000/svg">
<mask id="mask0_270:11571" style="mask-type:alpha" maskUnits="userSpaceOnUse" x="0" y="0" width="110" height="110">
<circle cx="55" cy="55" r="55" fill="#174E65"/>
</mask>
<g mask="url(#mask0_270:11571)">
<rect x="-11.7858" y="-10.8036" width="143.393" height="130.625" fill="#D4D9E8"/>
<path d="M54.7435 68.4788C63.8913 68.4788 71.3071 60.3214 71.3071 50.2588C71.3071 40.1962 63.8913 32.0388 54.7435 32.0388C45.5957 32.0388 38.1799 40.1962 38.1799 50.2588C38.1799 60.3214 45.5957 68.4788 54.7435 68.4788Z" fill="#F8F9FF"/>
<path d="M55.5338 75.3463C30.1718 75.3463 9.61163 92.3206 9.61163 113.259C9.61163 118.842 15.0944 123.369 21.8576 123.369H89.2103C95.9735 123.369 101.456 118.842 101.456 113.259C101.456 92.3206 80.8959 75.3463 55.5338 75.3463Z" fill="#F8F9FF"/>
</g>
</svg>
